# xmcd
# 
# Track frame offsets:
#     150
#     13904
#     34454
#     46348
#     65823
#     81714
#     104530
#     119116
#     139318
#     161760
#     181343
#     201660
#     211609
#     231429
#     247363
#     263252
# 
# Disc length: 3631
# 
# Revision: 0
# Processed by: cddbd v1.5.2PL0 Copyright (c) Steve Scherf et al.
# Submitted via: BonkEnc v1.0.5
# 
DISCID=040e2d10
DTITLE=The Texas Dukes - Fatherland [CD1]
DYEAR=2008
DGENRE=Country
TTITLE0=Texas Dukes
TTITLE1=Friday Night Shuffle
TTITLE2=Lonestar Waltz
TTITLE3=Pony Ride
TTITLE4=Night Out
TTITLE5=St Louis Swing
TTITLE6=Rum and Cola
TTITLE7=Rodeo Cowgirl
TTITLE8=Reminiscing
TTITLE9=Too Much Beer
TTITLE10=Bobbie Sue
TTITLE11=Lubbock Waltz
TTITLE12=Joke's On Me
TTITLE13=Durango Nights
TTITLE14=Highway Moon
TTITLE15=Cowboy Boogie
EXTD=
EXTT0=
EXTT1=
EXTT2=
EXTT3=
EXTT4=
EXTT5=
EXTT6=
EXTT7=
EXTT8=
EXTT9=
EXTT10=
EXTT11=
EXTT12=
EXTT13=
EXTT14=
EXTT15=
PLAYORDER=
